<svg width="1208" height="307" viewBox="0 0 1208 307" fill="none" xmlns="http://www.w3.org/2000/svg">
<path d="M1167.25 171.32H1155.73C1152.46 171.32 1149.58 172.088 1147.09 173.624C1144.78 174.968 1142.77 176.888 1141.04 179.384C1139.5 181.688 1138.26 184.376 1137.3 187.448C1136.53 190.328 1136.14 193.304 1136.14 196.376V242.744C1136.14 249.848 1135.38 256.088 1133.84 261.464C1132.5 266.84 1130 271.352 1126.35 275C1122.9 278.84 1118.19 281.72 1112.24 283.64C1106.48 285.56 1099.18 286.52 1090.35 286.52H1067.02V267.8H1091.5C1099.57 267.8 1105.23 265.976 1108.5 262.328C1111.95 258.68 1113.68 252.056 1113.68 242.456V202.712C1113.68 189.848 1115.6 180.44 1119.44 174.488C1123.28 168.344 1127.7 164.216 1132.69 162.104C1127.7 159.8 1123.28 155.48 1119.44 149.144C1115.6 142.808 1113.68 133.592 1113.68 121.496V81.752C1113.68 72.152 1111.95 65.528 1108.5 61.88C1105.04 58.232 1099.28 56.408 1091.22 56.408H1067.02V37.688H1090.35C1099.18 37.688 1106.48 38.648 1112.24 40.568C1118.19 42.488 1122.9 45.368 1126.35 49.208C1130 52.856 1132.5 57.368 1133.84 62.744C1135.38 68.12 1136.14 74.36 1136.14 81.464V127.832C1136.14 130.712 1136.53 133.688 1137.3 136.76C1138.06 139.64 1139.22 142.328 1140.75 144.824C1142.48 147.128 1144.5 149.048 1146.8 150.584C1149.3 152.12 1152.18 152.888 1155.44 152.888H1167.25V171.32Z" fill="#261132" fill-opacity="0.75"/>
<path d="M22.752 159.888H34.272C37.536 159.888 40.416 159.216 42.912 157.872C45.408 156.336 47.424 154.416 48.96 152.112C50.688 149.616 51.936 146.928 52.704 144.048C53.664 140.976 54.144 137.904 54.144 134.832V88.464C54.144 81.36 54.816 75.12 56.16 69.744C57.696 64.368 60.192 59.856 63.648 56.208C67.104 52.368 71.712 49.488 77.472 47.568C83.424 45.648 90.816 44.688 99.648 44.688H122.976V63.408H98.496C90.432 63.408 84.672 65.232 81.216 68.88C77.952 72.528 76.32 79.152 76.32 88.752V128.496C76.32 141.36 74.4 150.864 70.56 157.008C66.72 162.96 62.304 166.992 57.312 169.104C62.304 171.408 66.72 175.728 70.56 182.064C74.4 188.4 76.32 197.616 76.32 209.712V249.456C76.32 259.056 78.048 265.68 81.504 269.328C84.96 272.976 90.72 274.8 98.784 274.8H122.976V293.52H99.648C90.816 293.52 83.424 292.56 77.472 290.64C71.712 288.72 67.104 285.84 63.648 282C60.192 278.352 57.696 273.84 56.16 268.464C54.816 263.088 54.144 256.848 54.144 249.744V203.376C54.144 200.496 53.664 197.616 52.704 194.736C51.936 191.664 50.688 188.976 48.96 186.672C47.424 184.176 45.408 182.16 42.912 180.624C40.608 179.088 37.824 178.32 34.56 178.32H22.752V159.888Z" fill="#261132" fill-opacity="0.75"/>
<path d="M168.096 165.648V162.288H182.16V182.448C182.16 183.856 182 185.184 181.68 186.432C181.392 187.68 180.864 188.768 180.096 189.696C179.36 190.592 178.352 191.312 177.072 191.856C175.824 192.368 174.24 192.624 172.32 192.624C170.4 192.624 168.784 192.352 167.472 191.808C166.16 191.264 165.2 190.736 164.592 190.224L166.176 187.008C166.784 187.456 167.584 187.936 168.576 188.448C169.6 188.96 170.784 189.216 172.128 189.216C174.176 189.216 175.696 188.672 176.688 187.584C177.712 186.496 178.224 184.656 178.224 182.064V165.648H168.096ZM198.24 189.168C199.232 189.168 200.112 189.136 200.88 189.072C201.68 189.008 202.336 188.928 202.848 188.832V182.208C202.336 182.048 201.712 181.92 200.976 181.824C200.272 181.728 199.52 181.68 198.72 181.68C197.984 181.68 197.264 181.744 196.56 181.872C195.856 181.968 195.232 182.16 194.688 182.448C194.144 182.736 193.696 183.12 193.344 183.6C192.992 184.048 192.816 184.624 192.816 185.328C192.816 186.768 193.296 187.776 194.256 188.352C195.248 188.896 196.576 189.168 198.24 189.168ZM197.856 169.2C199.52 169.2 200.912 169.408 202.032 169.824C203.184 170.24 204.112 170.816 204.816 171.552C205.52 172.288 206.016 173.184 206.304 174.24C206.592 175.296 206.736 176.448 206.736 177.696V191.616C205.808 191.776 204.576 191.968 203.04 192.192C201.536 192.416 199.984 192.528 198.384 192.528C197.168 192.528 195.984 192.416 194.832 192.192C193.68 192 192.656 191.648 191.76 191.136C190.864 190.592 190.144 189.856 189.6 188.928C189.056 188 188.784 186.816 188.784 185.376C188.784 184.096 189.056 183.024 189.6 182.16C190.176 181.264 190.896 180.544 191.76 180C192.656 179.456 193.664 179.072 194.784 178.848C195.936 178.592 197.088 178.464 198.24 178.464C199.808 178.464 201.344 178.64 202.848 178.992V177.888C202.848 177.216 202.768 176.576 202.608 175.968C202.48 175.328 202.208 174.752 201.792 174.24C201.408 173.728 200.864 173.328 200.16 173.04C199.488 172.72 198.608 172.56 197.52 172.56C196.144 172.56 194.944 172.656 193.92 172.848C192.896 173.04 192.112 173.232 191.568 173.424L191.088 170.16C191.632 169.904 192.528 169.68 193.776 169.488C195.056 169.296 196.416 169.2 197.856 169.2ZM232.56 169.728C231.984 171.808 231.328 173.856 230.592 175.872C229.856 177.856 229.104 179.808 228.336 181.728C227.568 183.616 226.784 185.424 225.984 187.152C225.184 188.88 224.416 190.496 223.68 192H220.08C218.576 188.992 217.056 185.568 215.52 181.728C213.984 177.888 212.624 173.888 211.44 169.728H215.76C216.144 171.136 216.576 172.624 217.056 174.192C217.568 175.76 218.096 177.328 218.64 178.896C219.184 180.464 219.728 181.984 220.272 183.456C220.848 184.896 221.408 186.192 221.952 187.344C222.496 186.192 223.056 184.896 223.632 183.456C224.24 181.984 224.832 180.464 225.408 178.896C225.984 177.328 226.528 175.76 227.04 174.192C227.584 172.624 228.048 171.136 228.432 169.728H232.56ZM246.24 189.168C247.232 189.168 248.112 189.136 248.88 189.072C249.68 189.008 250.336 188.928 250.848 188.832V182.208C250.336 182.048 249.712 181.92 248.976 181.824C248.272 181.728 247.52 181.68 246.72 181.68C245.984 181.68 245.264 181.744 244.56 181.872C243.856 181.968 243.232 182.16 242.688 182.448C242.144 182.736 241.696 183.12 241.344 183.6C240.992 184.048 240.816 184.624 240.816 185.328C240.816 186.768 241.296 187.776 242.256 188.352C243.248 188.896 244.576 189.168 246.24 189.168ZM245.856 169.2C247.52 169.2 248.912 169.408 250.032 169.824C251.184 170.24 252.112 170.816 252.816 171.552C253.52 172.288 254.016 173.184 254.304 174.24C254.592 175.296 254.736 176.448 254.736 177.696V191.616C253.808 191.776 252.576 191.968 251.04 192.192C249.536 192.416 247.984 192.528 246.384 192.528C245.168 192.528 243.984 192.416 242.832 192.192C241.68 192 240.656 191.648 239.76 191.136C238.864 190.592 238.144 189.856 237.6 188.928C237.056 188 236.784 186.816 236.784 185.376C236.784 184.096 237.056 183.024 237.6 182.16C238.176 181.264 238.896 180.544 239.76 180C240.656 179.456 241.664 179.072 242.784 178.848C243.936 178.592 245.088 178.464 246.24 178.464C247.808 178.464 249.344 178.64 250.848 178.992V177.888C250.848 177.216 250.768 176.576 250.608 175.968C250.48 175.328 250.208 174.752 249.792 174.24C249.408 173.728 248.864 173.328 248.16 173.04C247.488 172.72 246.608 172.56 245.52 172.56C244.144 172.56 242.944 172.656 241.92 172.848C240.896 173.04 240.112 173.232 239.568 173.424L239.088 170.16C239.632 169.904 240.528 169.68 241.776 169.488C243.056 169.296 244.416 169.2 245.856 169.2ZM274.848 186.432C274.848 185.632 274.512 184.976 273.84 184.464C273.2 183.952 272.384 183.504 271.392 183.12C270.432 182.736 269.376 182.368 268.224 182.016C267.072 181.632 266 181.168 265.008 180.624C264.048 180.08 263.232 179.408 262.56 178.608C261.92 177.808 261.6 176.768 261.6 175.488C261.6 173.696 262.32 172.208 263.76 171.024C265.232 169.808 267.52 169.2 270.624 169.2C271.84 169.2 273.088 169.296 274.368 169.488C275.68 169.648 276.8 169.872 277.728 170.16L277.008 173.712C276.752 173.584 276.4 173.456 275.952 173.328C275.504 173.168 274.992 173.04 274.416 172.944C273.84 172.816 273.216 172.72 272.544 172.656C271.904 172.592 271.28 172.56 270.672 172.56C267.216 172.56 265.488 173.504 265.488 175.392C265.488 176.064 265.808 176.64 266.448 177.12C267.12 177.568 267.952 177.984 268.944 178.368C269.936 178.752 271.008 179.152 272.16 179.568C273.312 179.952 274.384 180.432 275.376 181.008C276.368 181.584 277.184 182.288 277.824 183.12C278.496 183.92 278.832 184.944 278.832 186.192C278.832 188.208 278.048 189.776 276.48 190.896C274.912 191.984 272.432 192.528 269.04 192.528C267.504 192.528 266.096 192.4 264.816 192.144C263.536 191.888 262.32 191.504 261.168 190.992L261.936 187.392C263.056 187.904 264.224 188.336 265.44 188.688C266.688 189.008 268.016 189.168 269.424 189.168C273.04 189.168 274.848 188.256 274.848 186.432ZM284.352 180.912C284.352 178.896 284.672 177.152 285.312 175.68C285.952 174.208 286.832 172.992 287.952 172.032C289.072 171.072 290.368 170.368 291.84 169.92C293.344 169.44 294.944 169.2 296.64 169.2C297.728 169.2 298.8 169.28 299.856 169.44C300.944 169.568 302.096 169.824 303.312 170.208L302.4 173.616C301.344 173.232 300.368 172.992 299.472 172.896C298.608 172.768 297.728 172.704 296.832 172.704C295.68 172.704 294.592 172.864 293.568 173.184C292.544 173.472 291.648 173.952 290.88 174.624C290.144 175.264 289.552 176.112 289.104 177.168C288.656 178.192 288.432 179.44 288.432 180.912C288.432 182.32 288.64 183.536 289.056 184.56C289.472 185.552 290.048 186.384 290.784 187.056C291.552 187.696 292.464 188.176 293.52 188.496C294.576 188.816 295.744 188.976 297.024 188.976C298.048 188.976 299.024 188.928 299.952 188.832C300.912 188.704 301.952 188.448 303.072 188.064L303.648 191.376C302.528 191.792 301.392 192.08 300.24 192.24C299.088 192.432 297.84 192.528 296.496 192.528C294.704 192.528 293.056 192.288 291.552 191.808C290.08 191.296 288.8 190.56 287.712 189.6C286.656 188.64 285.824 187.44 285.216 186C284.64 184.528 284.352 182.832 284.352 180.912ZM311.136 192V170.928C314.4 169.808 317.696 169.248 321.024 169.248C322.048 169.248 323.024 169.296 323.952 169.392C324.88 169.456 325.904 169.616 327.024 169.872L326.304 173.376C325.28 173.088 324.368 172.912 323.568 172.848C322.8 172.752 321.952 172.704 321.024 172.704C319.072 172.704 317.088 172.976 315.072 173.52V192H311.136ZM340.032 166.272C339.2 166.272 338.48 165.984 337.872 165.408C337.264 164.832 336.96 164.048 336.96 163.056C336.96 162.064 337.264 161.28 337.872 160.704C338.48 160.128 339.2 159.84 340.032 159.84C340.896 159.84 341.616 160.128 342.192 160.704C342.8 161.28 343.104 162.064 343.104 163.056C343.104 164.048 342.8 164.832 342.192 165.408C341.616 165.984 340.896 166.272 340.032 166.272ZM339.024 173.04H332.592V169.728H342.96V183.408C342.96 185.616 343.264 187.104 343.872 187.872C344.48 188.608 345.392 188.976 346.608 188.976C347.536 188.976 348.384 188.864 349.152 188.64C349.952 188.416 350.576 188.176 351.024 187.92L351.6 191.28C351.408 191.376 351.136 191.504 350.784 191.664C350.432 191.792 350.016 191.92 349.536 192.048C349.088 192.176 348.576 192.288 348 192.384C347.456 192.48 346.88 192.528 346.272 192.528C344.864 192.528 343.696 192.336 342.768 191.952C341.84 191.568 341.088 190.992 340.512 190.224C339.968 189.456 339.584 188.512 339.36 187.392C339.136 186.24 339.024 184.912 339.024 183.408V173.04ZM372 180.912C372 178.32 371.392 176.32 370.176 174.912C368.96 173.472 367.376 172.752 365.424 172.752C364.336 172.752 363.472 172.8 362.832 172.896C362.224 172.992 361.744 173.104 361.392 173.232V187.296C361.84 187.712 362.496 188.096 363.36 188.448C364.224 188.8 365.12 188.976 366.048 188.976C367.104 188.976 368 188.768 368.736 188.352C369.504 187.936 370.128 187.376 370.608 186.672C371.088 185.936 371.44 185.088 371.664 184.128C371.888 183.136 372 182.064 372 180.912ZM376.08 180.912C376.08 182.608 375.856 184.176 375.408 185.616C374.992 187.024 374.368 188.24 373.536 189.264C372.736 190.288 371.744 191.088 370.56 191.664C369.376 192.24 368.032 192.528 366.528 192.528C365.344 192.528 364.304 192.384 363.408 192.096C362.512 191.808 361.84 191.488 361.392 191.136V199.92H357.408V170.4C358.272 170.144 359.376 169.888 360.72 169.632C362.096 169.376 363.664 169.248 365.424 169.248C367.024 169.248 368.48 169.52 369.792 170.064C371.104 170.608 372.224 171.392 373.152 172.416C374.08 173.408 374.8 174.624 375.312 176.064C375.824 177.504 376.08 179.12 376.08 180.912ZM389.664 169.728H399.072V173.04H389.664V183.408C389.664 184.528 389.744 185.44 389.904 186.144C390.064 186.848 390.32 187.424 390.672 187.872C391.056 188.288 391.536 188.576 392.112 188.736C392.688 188.896 393.392 188.976 394.224 188.976C395.376 188.976 396.304 188.88 397.008 188.688C397.712 188.496 398.384 188.24 399.024 187.92L399.6 191.28C399.152 191.472 398.432 191.728 397.44 192.048C396.48 192.368 395.28 192.528 393.84 192.528C392.176 192.528 390.816 192.336 389.76 191.952C388.704 191.568 387.872 190.992 387.264 190.224C386.688 189.456 386.288 188.512 386.064 187.392C385.84 186.24 385.728 184.912 385.728 183.408V173.04H381.024V169.728H385.728V163.488L389.664 162.816V169.728Z" fill="#747572"/>
<path d="M184.128 84.288V87.648H175.968V114H172.032V87.648H163.872V84.288H184.128ZM188.448 118.176C188.736 118.336 189.136 118.464 189.648 118.56C190.192 118.656 190.688 118.704 191.136 118.704C192.704 118.704 193.92 118.352 194.784 117.648C195.68 116.976 196.496 115.856 197.232 114.288C195.44 110.896 193.76 107.264 192.192 103.392C190.624 99.488 189.328 95.6 188.304 91.728H192.624C192.944 93.008 193.312 94.4 193.728 95.904C194.176 97.376 194.672 98.896 195.216 100.464C195.76 102.032 196.336 103.616 196.944 105.216C197.584 106.784 198.256 108.288 198.96 109.728C199.472 108.256 199.952 106.8 200.4 105.36C200.848 103.92 201.264 102.48 201.648 101.04C202.032 99.568 202.416 98.08 202.8 96.576C203.184 95.04 203.584 93.424 204 91.728H208.128C207.104 95.888 205.952 99.92 204.672 103.824C203.424 107.728 202.08 111.344 200.64 114.672C200.096 115.952 199.504 117.056 198.864 117.984C198.256 118.912 197.584 119.68 196.848 120.288C196.112 120.896 195.28 121.344 194.352 121.632C193.424 121.92 192.368 122.064 191.184 122.064C190.576 122.064 189.904 121.984 189.168 121.824C188.464 121.664 187.984 121.52 187.728 121.392L188.448 118.176ZM228 102.912C228 100.32 227.392 98.32 226.176 96.912C224.96 95.472 223.376 94.752 221.424 94.752C220.336 94.752 219.472 94.8 218.832 94.896C218.224 94.992 217.744 95.104 217.392 95.232V109.296C217.84 109.712 218.496 110.096 219.36 110.448C220.224 110.8 221.12 110.976 222.048 110.976C223.104 110.976 224 110.768 224.736 110.352C225.504 109.936 226.128 109.376 226.608 108.672C227.088 107.936 227.44 107.088 227.664 106.128C227.888 105.136 228 104.064 228 102.912ZM232.08 102.912C232.08 104.608 231.856 106.176 231.408 107.616C230.992 109.024 230.368 110.24 229.536 111.264C228.736 112.288 227.744 113.088 226.56 113.664C225.376 114.24 224.032 114.528 222.528 114.528C221.344 114.528 220.304 114.384 219.408 114.096C218.512 113.808 217.84 113.488 217.392 113.136V121.92H213.408V92.4C214.272 92.144 215.376 91.888 216.72 91.632C218.096 91.376 219.664 91.248 221.424 91.248C223.024 91.248 224.48 91.52 225.792 92.064C227.104 92.608 228.224 93.392 229.152 94.416C230.08 95.408 230.8 96.624 231.312 98.064C231.824 99.504 232.08 101.12 232.08 102.912ZM246.432 91.2C249.44 91.2 251.76 92.144 253.392 94.032C255.024 95.888 255.84 98.72 255.84 102.528V103.92H239.904C240.064 106.224 240.816 107.984 242.16 109.2C243.536 110.384 245.456 110.976 247.92 110.976C249.328 110.976 250.528 110.864 251.52 110.64C252.512 110.416 253.264 110.176 253.776 109.92L254.304 113.28C253.824 113.536 252.96 113.808 251.712 114.096C250.464 114.384 249.056 114.528 247.488 114.528C245.568 114.528 243.872 114.24 242.4 113.664C240.96 113.056 239.76 112.24 238.8 111.216C237.84 110.192 237.12 108.976 236.64 107.568C236.16 106.128 235.92 104.576 235.92 102.912C235.92 100.928 236.224 99.2 236.832 97.728C237.44 96.256 238.24 95.04 239.232 94.08C240.224 93.12 241.344 92.4 242.592 91.92C243.84 91.44 245.12 91.2 246.432 91.2ZM251.808 100.704C251.808 98.816 251.312 97.328 250.32 96.24C249.328 95.12 248.016 94.56 246.384 94.56C245.456 94.56 244.608 94.736 243.84 95.088C243.104 95.44 242.464 95.904 241.92 96.48C241.376 97.056 240.944 97.712 240.624 98.448C240.304 99.184 240.096 99.936 240 100.704H251.808ZM269.232 111.216C271.248 111.216 272.784 110.832 273.84 110.064C274.896 109.296 275.424 108.144 275.424 106.608C275.424 105.68 275.232 104.896 274.848 104.256C274.464 103.584 273.952 103.008 273.312 102.528C272.672 102.016 271.952 101.584 271.152 101.232C270.352 100.848 269.536 100.496 268.704 100.176C267.744 99.792 266.816 99.36 265.92 98.88C265.056 98.4 264.272 97.84 263.568 97.2C262.896 96.56 262.352 95.808 261.936 94.944C261.552 94.08 261.36 93.056 261.36 91.872C261.36 89.28 262.176 87.264 263.808 85.824C265.44 84.352 267.712 83.616 270.624 83.616C271.424 83.616 272.208 83.68 272.976 83.808C273.776 83.904 274.512 84.032 275.184 84.192C275.856 84.352 276.448 84.544 276.96 84.768C277.504 84.992 277.936 85.216 278.256 85.44L277.008 88.752C276.368 88.368 275.488 87.984 274.368 87.6C273.248 87.216 272 87.024 270.624 87.024C269.184 87.024 267.936 87.392 266.88 88.128C265.824 88.832 265.296 89.904 265.296 91.344C265.296 92.176 265.44 92.88 265.728 93.456C266.048 94.032 266.464 94.544 266.976 94.992C267.52 95.408 268.144 95.792 268.848 96.144C269.552 96.496 270.32 96.848 271.152 97.2C272.368 97.712 273.472 98.224 274.464 98.736C275.488 99.248 276.352 99.856 277.056 100.56C277.792 101.264 278.352 102.096 278.736 103.056C279.152 104.016 279.36 105.184 279.36 106.56C279.36 109.152 278.48 111.152 276.72 112.56C274.992 113.936 272.496 114.624 269.232 114.624C268.176 114.624 267.184 114.544 266.256 114.384C265.328 114.256 264.496 114.08 263.76 113.856C263.056 113.632 262.432 113.408 261.888 113.184C261.344 112.96 260.928 112.752 260.64 112.56L261.84 109.296C262.48 109.648 263.424 110.064 264.672 110.544C265.92 110.992 267.44 111.216 269.232 111.216ZM284.352 102.912C284.352 100.896 284.672 99.152 285.312 97.68C285.952 96.208 286.832 94.992 287.952 94.032C289.072 93.072 290.368 92.368 291.84 91.92C293.344 91.44 294.944 91.2 296.64 91.2C297.728 91.2 298.8 91.28 299.856 91.44C300.944 91.568 302.096 91.824 303.312 92.208L302.4 95.616C301.344 95.232 300.368 94.992 299.472 94.896C298.608 94.768 297.728 94.704 296.832 94.704C295.68 94.704 294.592 94.864 293.568 95.184C292.544 95.472 291.648 95.952 290.88 96.624C290.144 97.264 289.552 98.112 289.104 99.168C288.656 100.192 288.432 101.44 288.432 102.912C288.432 104.32 288.64 105.536 289.056 106.56C289.472 107.552 290.048 108.384 290.784 109.056C291.552 109.696 292.464 110.176 293.52 110.496C294.576 110.816 295.744 110.976 297.024 110.976C298.048 110.976 299.024 110.928 299.952 110.832C300.912 110.704 301.952 110.448 303.072 110.064L303.648 113.376C302.528 113.792 301.392 114.08 300.24 114.24C299.088 114.432 297.84 114.528 296.496 114.528C294.704 114.528 293.056 114.288 291.552 113.808C290.08 113.296 288.8 112.56 287.712 111.6C286.656 110.64 285.824 109.44 285.216 108C284.64 106.528 284.352 104.832 284.352 102.912ZM311.136 114V92.928C314.4 91.808 317.696 91.248 321.024 91.248C322.048 91.248 323.024 91.296 323.952 91.392C324.88 91.456 325.904 91.616 327.024 91.872L326.304 95.376C325.28 95.088 324.368 94.912 323.568 94.848C322.8 94.752 321.952 94.704 321.024 94.704C319.072 94.704 317.088 94.976 315.072 95.52V114H311.136ZM340.032 88.272C339.2 88.272 338.48 87.984 337.872 87.408C337.264 86.832 336.96 86.048 336.96 85.056C336.96 84.064 337.264 83.28 337.872 82.704C338.48 82.128 339.2 81.84 340.032 81.84C340.896 81.84 341.616 82.128 342.192 82.704C342.8 83.28 343.104 84.064 343.104 85.056C343.104 86.048 342.8 86.832 342.192 87.408C341.616 87.984 340.896 88.272 340.032 88.272ZM339.024 95.04H332.592V91.728H342.96V105.408C342.96 107.616 343.264 109.104 343.872 109.872C344.48 110.608 345.392 110.976 346.608 110.976C347.536 110.976 348.384 110.864 349.152 110.64C349.952 110.416 350.576 110.176 351.024 109.92L351.6 113.28C351.408 113.376 351.136 113.504 350.784 113.664C350.432 113.792 350.016 113.92 349.536 114.048C349.088 114.176 348.576 114.288 348 114.384C347.456 114.48 346.88 114.528 346.272 114.528C344.864 114.528 343.696 114.336 342.768 113.952C341.84 113.568 341.088 112.992 340.512 112.224C339.968 111.456 339.584 110.512 339.36 109.392C339.136 108.24 339.024 106.912 339.024 105.408V95.04ZM372 102.912C372 100.32 371.392 98.32 370.176 96.912C368.96 95.472 367.376 94.752 365.424 94.752C364.336 94.752 363.472 94.8 362.832 94.896C362.224 94.992 361.744 95.104 361.392 95.232V109.296C361.84 109.712 362.496 110.096 363.36 110.448C364.224 110.8 365.12 110.976 366.048 110.976C367.104 110.976 368 110.768 368.736 110.352C369.504 109.936 370.128 109.376 370.608 108.672C371.088 107.936 371.44 107.088 371.664 106.128C371.888 105.136 372 104.064 372 102.912ZM376.08 102.912C376.08 104.608 375.856 106.176 375.408 107.616C374.992 109.024 374.368 110.24 373.536 111.264C372.736 112.288 371.744 113.088 370.56 113.664C369.376 114.24 368.032 114.528 366.528 114.528C365.344 114.528 364.304 114.384 363.408 114.096C362.512 113.808 361.84 113.488 361.392 113.136V121.92H357.408V92.4C358.272 92.144 359.376 91.888 360.72 91.632C362.096 91.376 363.664 91.248 365.424 91.248C367.024 91.248 368.48 91.52 369.792 92.064C371.104 92.608 372.224 93.392 373.152 94.416C374.08 95.408 374.8 96.624 375.312 98.064C375.824 99.504 376.08 101.12 376.08 102.912ZM389.664 91.728H399.072V95.04H389.664V105.408C389.664 106.528 389.744 107.44 389.904 108.144C390.064 108.848 390.32 109.424 390.672 109.872C391.056 110.288 391.536 110.576 392.112 110.736C392.688 110.896 393.392 110.976 394.224 110.976C395.376 110.976 396.304 110.88 397.008 110.688C397.712 110.496 398.384 110.24 399.024 109.92L399.6 113.28C399.152 113.472 398.432 113.728 397.44 114.048C396.48 114.368 395.28 114.528 393.84 114.528C392.176 114.528 390.816 114.336 389.76 113.952C388.704 113.568 387.872 112.992 387.264 112.224C386.688 111.456 386.288 110.512 386.064 109.392C385.84 108.24 385.728 106.912 385.728 105.408V95.04H381.024V91.728H385.728V85.488L389.664 84.816V91.728Z" fill="#747572"/>
<path d="M184.08 265.752C182.96 266.392 181.76 266.856 180.48 267.144C179.232 267.464 177.888 267.624 176.448 267.624C174.688 267.624 173.056 267.32 171.552 266.712C170.08 266.072 168.8 265.128 167.712 263.88C166.624 262.6 165.76 260.984 165.12 259.032C164.512 257.08 164.208 254.776 164.208 252.12C164.208 249.592 164.528 247.368 165.168 245.448C165.84 243.528 166.736 241.912 167.856 240.6C168.976 239.288 170.288 238.296 171.792 237.624C173.296 236.952 174.896 236.616 176.592 236.616C177.776 236.616 178.976 236.776 180.192 237.096C181.44 237.416 182.656 237.944 183.84 238.68L182.688 241.944C180.576 240.728 178.592 240.12 176.736 240.12C175.424 240.12 174.24 240.408 173.184 240.984C172.16 241.528 171.28 242.328 170.544 243.384C169.808 244.44 169.232 245.704 168.816 247.176C168.432 248.648 168.24 250.296 168.24 252.12C168.24 254.168 168.448 255.944 168.864 257.448C169.312 258.952 169.92 260.2 170.688 261.192C171.456 262.184 172.368 262.92 173.424 263.4C174.512 263.88 175.68 264.12 176.928 264.12C177.856 264.12 178.832 264.008 179.856 263.784C180.88 263.528 181.936 263.096 183.024 262.488L184.08 265.752ZM201.408 267H197.808L199.296 259.176H193.968L192.48 267H188.88L190.368 259.176H187.296V255.96H190.992L192.432 248.328H187.296V245.16H193.104L194.592 237.288H198.192L196.704 245.16H202.032L203.472 237.288H207.072L205.632 245.16H208.704V248.328H205.008L203.52 255.96H208.704V259.176H202.896L201.408 267ZM201.36 248.328H196.08L194.592 255.96H199.872L201.36 248.328Z" fill="#747572"/>
<path d="M960.904 82.288H964.84V112H960.904V98.176H949.096V112H945.16V82.288H949.096V94.816H960.904V82.288ZM989.128 82.288V85.648H980.968V112H977.032V85.648H968.872V82.288H989.128ZM1003.05 97.072L1007.66 82.288H1011.35C1011.99 86.96 1012.44 91.744 1012.7 96.64C1012.98 101.536 1013.24 106.656 1013.46 112H1009.62C1009.59 110.272 1009.56 108.4 1009.53 106.384C1009.5 104.368 1009.45 102.288 1009.38 100.144C1009.35 98 1009.3 95.824 1009.24 93.616C1009.21 91.408 1009.16 89.264 1009.1 87.184L1004.78 100.72H1001.32L996.904 87.184C996.872 89.264 996.824 91.408 996.76 93.616C996.728 95.792 996.68 97.968 996.616 100.144C996.584 102.288 996.536 104.368 996.472 106.384C996.44 108.4 996.408 110.272 996.376 112H992.536C992.632 109.568 992.744 107.072 992.872 104.512C993 101.952 993.144 99.408 993.304 96.88C993.496 94.352 993.704 91.856 993.928 89.392C994.184 86.928 994.456 84.56 994.744 82.288H998.392L1003.05 97.072ZM1037.08 108.64V112H1019.37V82.288H1023.3V108.64H1037.08Z" fill="#747572"/>
<path d="M965.08 188.752C963.96 189.392 962.76 189.856 961.48 190.144C960.232 190.464 958.888 190.624 957.448 190.624C955.688 190.624 954.056 190.32 952.552 189.712C951.08 189.072 949.8 188.128 948.712 186.88C947.624 185.6 946.76 183.984 946.12 182.032C945.512 180.08 945.208 177.776 945.208 175.12C945.208 172.592 945.528 170.368 946.168 168.448C946.84 166.528 947.736 164.912 948.856 163.6C949.976 162.288 951.288 161.296 952.792 160.624C954.296 159.952 955.896 159.616 957.592 159.616C958.776 159.616 959.976 159.776 961.192 160.096C962.44 160.416 963.656 160.944 964.84 161.68L963.688 164.944C961.576 163.728 959.592 163.12 957.736 163.12C956.424 163.12 955.24 163.408 954.184 163.984C953.16 164.528 952.28 165.328 951.544 166.384C950.808 167.44 950.232 168.704 949.816 170.176C949.432 171.648 949.24 173.296 949.24 175.12C949.24 177.168 949.448 178.944 949.864 180.448C950.312 181.952 950.92 183.2 951.688 184.192C952.456 185.184 953.368 185.92 954.424 186.4C955.512 186.88 956.68 187.12 957.928 187.12C958.856 187.12 959.832 187.008 960.856 186.784C961.88 186.528 962.936 186.096 964.024 185.488L965.08 188.752ZM978.232 187.216C980.248 187.216 981.784 186.832 982.84 186.064C983.896 185.296 984.424 184.144 984.424 182.608C984.424 181.68 984.232 180.896 983.848 180.256C983.464 179.584 982.952 179.008 982.312 178.528C981.672 178.016 980.952 177.584 980.152 177.232C979.352 176.848 978.536 176.496 977.704 176.176C976.744 175.792 975.816 175.36 974.92 174.88C974.056 174.4 973.272 173.84 972.568 173.2C971.896 172.56 971.352 171.808 970.936 170.944C970.552 170.08 970.36 169.056 970.36 167.872C970.36 165.28 971.176 163.264 972.808 161.824C974.44 160.352 976.712 159.616 979.624 159.616C980.424 159.616 981.208 159.68 981.976 159.808C982.776 159.904 983.512 160.032 984.184 160.192C984.856 160.352 985.448 160.544 985.96 160.768C986.504 160.992 986.936 161.216 987.256 161.44L986.008 164.752C985.368 164.368 984.488 163.984 983.368 163.6C982.248 163.216 981 163.024 979.624 163.024C978.184 163.024 976.936 163.392 975.88 164.128C974.824 164.832 974.296 165.904 974.296 167.344C974.296 168.176 974.44 168.88 974.728 169.456C975.048 170.032 975.464 170.544 975.976 170.992C976.52 171.408 977.144 171.792 977.848 172.144C978.552 172.496 979.32 172.848 980.152 173.2C981.368 173.712 982.472 174.224 983.464 174.736C984.488 175.248 985.352 175.856 986.056 176.56C986.792 177.264 987.352 178.096 987.736 179.056C988.152 180.016 988.36 181.184 988.36 182.56C988.36 185.152 987.48 187.152 985.72 188.56C983.992 189.936 981.496 190.624 978.232 190.624C977.176 190.624 976.184 190.544 975.256 190.384C974.328 190.256 973.496 190.08 972.76 189.856C972.056 189.632 971.432 189.408 970.888 189.184C970.344 188.96 969.928 188.752 969.64 188.56L970.84 185.296C971.48 185.648 972.424 186.064 973.672 186.544C974.92 186.992 976.44 187.216 978.232 187.216ZM1002.23 187.216C1004.25 187.216 1005.78 186.832 1006.84 186.064C1007.9 185.296 1008.42 184.144 1008.42 182.608C1008.42 181.68 1008.23 180.896 1007.85 180.256C1007.46 179.584 1006.95 179.008 1006.31 178.528C1005.67 178.016 1004.95 177.584 1004.15 177.232C1003.35 176.848 1002.54 176.496 1001.7 176.176C1000.74 175.792 999.816 175.36 998.92 174.88C998.056 174.4 997.272 173.84 996.568 173.2C995.896 172.56 995.352 171.808 994.936 170.944C994.552 170.08 994.36 169.056 994.36 167.872C994.36 165.28 995.176 163.264 996.808 161.824C998.44 160.352 1000.71 159.616 1003.62 159.616C1004.42 159.616 1005.21 159.68 1005.98 159.808C1006.78 159.904 1007.51 160.032 1008.18 160.192C1008.86 160.352 1009.45 160.544 1009.96 160.768C1010.5 160.992 1010.94 161.216 1011.26 161.44L1010.01 164.752C1009.37 164.368 1008.49 163.984 1007.37 163.6C1006.25 163.216 1005 163.024 1003.62 163.024C1002.18 163.024 1000.94 163.392 999.88 164.128C998.824 164.832 998.296 165.904 998.296 167.344C998.296 168.176 998.44 168.88 998.728 169.456C999.048 170.032 999.464 170.544 999.976 170.992C1000.52 171.408 1001.14 171.792 1001.85 172.144C1002.55 172.496 1003.32 172.848 1004.15 173.2C1005.37 173.712 1006.47 174.224 1007.46 174.736C1008.49 175.248 1009.35 175.856 1010.06 176.56C1010.79 177.264 1011.35 178.096 1011.74 179.056C1012.15 180.016 1012.36 181.184 1012.36 182.56C1012.36 185.152 1011.48 187.152 1009.72 188.56C1007.99 189.936 1005.5 190.624 1002.23 190.624C1001.18 190.624 1000.18 190.544 999.256 190.384C998.328 190.256 997.496 190.08 996.76 189.856C996.056 189.632 995.432 189.408 994.888 189.184C994.344 188.96 993.928 188.752 993.64 188.56L994.84 185.296C995.48 185.648 996.424 186.064 997.672 186.544C998.92 186.992 1000.44 187.216 1002.23 187.216Z" fill="#747572"/>
<path d="M556.368 265V235.288H573.216V238.648H560.304V247.912H571.68V251.224H560.304V265H556.368ZM586.032 239.272C585.2 239.272 584.48 238.984 583.872 238.408C583.264 237.832 582.96 237.048 582.96 236.056C582.96 235.064 583.264 234.28 583.872 233.704C584.48 233.128 585.2 232.84 586.032 232.84C586.896 232.84 587.616 233.128 588.192 233.704C588.8 234.28 589.104 235.064 589.104 236.056C589.104 237.048 588.8 237.832 588.192 238.408C587.616 238.984 586.896 239.272 586.032 239.272ZM585.024 246.04H578.592V242.728H588.96V256.408C588.96 258.616 589.264 260.104 589.872 260.872C590.48 261.608 591.392 261.976 592.608 261.976C593.536 261.976 594.384 261.864 595.152 261.64C595.952 261.416 596.576 261.176 597.024 260.92L597.6 264.28C597.408 264.376 597.136 264.504 596.784 264.664C596.432 264.792 596.016 264.92 595.536 265.048C595.088 265.176 594.576 265.288 594 265.384C593.456 265.48 592.88 265.528 592.272 265.528C590.864 265.528 589.696 265.336 588.768 264.952C587.84 264.568 587.088 263.992 586.512 263.224C585.968 262.456 585.584 261.512 585.36 260.392C585.136 259.24 585.024 257.912 585.024 256.408V246.04ZM616.608 262.936C616.16 263.192 615.472 263.464 614.544 263.752C613.616 264.04 612.544 264.184 611.328 264.184C610.016 264.184 608.784 263.976 607.632 263.56C606.512 263.112 605.52 262.456 604.656 261.592C603.824 260.696 603.152 259.576 602.64 258.232C602.16 256.856 601.92 255.24 601.92 253.384C601.92 251.752 602.144 250.264 602.592 248.92C603.072 247.544 603.744 246.36 604.608 245.368C605.504 244.376 606.592 243.608 607.872 243.064C609.152 242.488 610.608 242.2 612.24 242.2C614.16 242.2 615.792 242.344 617.136 242.632C618.512 242.888 619.664 243.144 620.592 243.4V263.272C620.592 266.728 619.712 269.224 617.952 270.76C616.224 272.296 613.6 273.064 610.08 273.064C608.64 273.064 607.328 272.952 606.144 272.728C604.992 272.504 603.968 272.232 603.072 271.912L603.792 268.408C604.624 268.76 605.568 269.048 606.624 269.272C607.712 269.496 608.896 269.608 610.176 269.608C612.48 269.608 614.128 269.144 615.12 268.216C616.112 267.288 616.608 265.784 616.608 263.704V262.936ZM616.608 246.232C616.224 246.104 615.696 245.992 615.024 245.896C614.352 245.768 613.44 245.704 612.288 245.704C610.24 245.704 608.672 246.408 607.584 247.816C606.528 249.224 606 251.096 606 253.432C606 254.712 606.144 255.816 606.432 256.744C606.752 257.64 607.168 258.392 607.68 259C608.224 259.576 608.832 260.008 609.504 260.296C610.176 260.552 610.896 260.68 611.664 260.68C612.656 260.68 613.584 260.536 614.448 260.248C615.344 259.96 616.064 259.624 616.608 259.24V246.232ZM625.968 243.352C627.888 242.616 629.696 242.248 631.392 242.248C632.32 242.248 633.184 242.392 633.984 242.68C634.816 242.936 635.52 243.352 636.096 243.928C637.472 242.808 638.944 242.248 640.512 242.248C641.28 242.248 642 242.392 642.672 242.68C643.376 242.968 643.984 243.4 644.496 243.976C645.04 244.552 645.472 245.272 645.792 246.136C646.112 247 646.272 248.008 646.272 249.16V265H642.672V249.064C642.672 247.912 642.416 247.032 641.904 246.424C641.392 245.816 640.752 245.512 639.984 245.512C639.6 245.512 639.2 245.608 638.784 245.8C638.368 245.992 637.984 246.296 637.632 246.712C637.824 247.448 637.92 248.264 637.92 249.16V256.408H634.32V249.112C634.32 247.992 634.144 247.112 633.792 246.472C633.44 245.832 632.752 245.512 631.728 245.512C631.088 245.512 630.368 245.656 629.568 245.944V265H625.968V243.352ZM660.24 262.168C661.232 262.168 662.112 262.136 662.88 262.072C663.68 262.008 664.336 261.928 664.848 261.832V255.208C664.336 255.048 663.712 254.92 662.976 254.824C662.272 254.728 661.52 254.68 660.72 254.68C659.984 254.68 659.264 254.744 658.56 254.872C657.856 254.968 657.232 255.16 656.688 255.448C656.144 255.736 655.696 256.12 655.344 256.6C654.992 257.048 654.816 257.624 654.816 258.328C654.816 259.768 655.296 260.776 656.256 261.352C657.248 261.896 658.576 262.168 660.24 262.168ZM659.856 242.2C661.52 242.2 662.912 242.408 664.032 242.824C665.184 243.24 666.112 243.816 666.816 244.552C667.52 245.288 668.016 246.184 668.304 247.24C668.592 248.296 668.736 249.448 668.736 250.696V264.616C667.808 264.776 666.576 264.968 665.04 265.192C663.536 265.416 661.984 265.528 660.384 265.528C659.168 265.528 657.984 265.416 656.832 265.192C655.68 265 654.656 264.648 653.76 264.136C652.864 263.592 652.144 262.856 651.6 261.928C651.056 261 650.784 259.816 650.784 258.376C650.784 257.096 651.056 256.024 651.6 255.16C652.176 254.264 652.896 253.544 653.76 253C654.656 252.456 655.664 252.072 656.784 251.848C657.936 251.592 659.088 251.464 660.24 251.464C661.808 251.464 663.344 251.64 664.848 251.992V250.888C664.848 250.216 664.768 249.576 664.608 248.968C664.48 248.328 664.208 247.752 663.792 247.24C663.408 246.728 662.864 246.328 662.16 246.04C661.488 245.72 660.608 245.56 659.52 245.56C658.144 245.56 656.944 245.656 655.92 245.848C654.896 246.04 654.112 246.232 653.568 246.424L653.088 243.16C653.632 242.904 654.528 242.68 655.776 242.488C657.056 242.296 658.416 242.2 659.856 242.2Z" fill="#747572"/>
<path d="M960.904 254.36H964.84V268.28C964.232 268.504 963.256 268.776 961.912 269.096C960.568 269.448 958.984 269.624 957.16 269.624C955.368 269.624 953.736 269.288 952.264 268.616C950.792 267.912 949.528 266.904 948.472 265.592C947.448 264.28 946.648 262.664 946.072 260.744C945.496 258.792 945.208 256.584 945.208 254.12C945.208 251.624 945.528 249.416 946.168 247.496C946.808 245.576 947.672 243.96 948.76 242.648C949.88 241.336 951.176 240.344 952.648 239.672C954.12 238.968 955.704 238.616 957.4 238.616C958.488 238.616 959.448 238.696 960.28 238.856C961.112 239.016 961.816 239.208 962.392 239.432C963 239.656 963.496 239.896 963.88 240.152C964.264 240.376 964.552 240.552 964.744 240.68L963.448 243.992C962.712 243.416 961.832 242.952 960.808 242.6C959.816 242.216 958.76 242.024 957.64 242.024C956.424 242.024 955.288 242.312 954.232 242.888C953.208 243.464 952.328 244.28 951.592 245.336C950.856 246.392 950.28 247.672 949.864 249.176C949.448 250.648 949.24 252.296 949.24 254.12C949.24 255.912 949.416 257.544 949.768 259.016C950.152 260.488 950.696 261.752 951.4 262.808C952.104 263.864 952.968 264.696 953.992 265.304C955.048 265.88 956.248 266.168 957.592 266.168C958.52 266.168 959.24 266.104 959.752 265.976C960.264 265.848 960.648 265.72 960.904 265.592V254.36ZM977.032 243.272C976.2 243.272 975.48 242.984 974.872 242.408C974.264 241.832 973.96 241.048 973.96 240.056C973.96 239.064 974.264 238.28 974.872 237.704C975.48 237.128 976.2 236.84 977.032 236.84C977.896 236.84 978.616 237.128 979.192 237.704C979.8 238.28 980.104 239.064 980.104 240.056C980.104 241.048 979.8 241.832 979.192 242.408C978.616 242.984 977.896 243.272 977.032 243.272ZM976.024 250.04H969.592V246.728H979.96V260.408C979.96 262.616 980.264 264.104 980.872 264.872C981.48 265.608 982.392 265.976 983.608 265.976C984.536 265.976 985.384 265.864 986.152 265.64C986.952 265.416 987.576 265.176 988.024 264.92L988.6 268.28C988.408 268.376 988.136 268.504 987.784 268.664C987.432 268.792 987.016 268.92 986.536 269.048C986.088 269.176 985.576 269.288 985 269.384C984.456 269.48 983.88 269.528 983.272 269.528C981.864 269.528 980.696 269.336 979.768 268.952C978.84 268.568 978.088 267.992 977.512 267.224C976.968 266.456 976.584 265.512 976.36 264.392C976.136 263.24 976.024 261.912 976.024 260.408V250.04ZM1002.66 246.728H1012.07V250.04H1002.66V260.408C1002.66 261.528 1002.74 262.44 1002.9 263.144C1003.06 263.848 1003.32 264.424 1003.67 264.872C1004.06 265.288 1004.54 265.576 1005.11 265.736C1005.69 265.896 1006.39 265.976 1007.22 265.976C1008.38 265.976 1009.3 265.88 1010.01 265.688C1010.71 265.496 1011.38 265.24 1012.02 264.92L1012.6 268.28C1012.15 268.472 1011.43 268.728 1010.44 269.048C1009.48 269.368 1008.28 269.528 1006.84 269.528C1005.18 269.528 1003.82 269.336 1002.76 268.952C1001.7 268.568 1000.87 267.992 1000.26 267.224C999.688 266.456 999.288 265.512 999.064 264.392C998.84 263.24 998.728 261.912 998.728 260.408V250.04H994.024V246.728H998.728V240.488L1002.66 239.816V246.728Z" fill="#747572"/>
<path d="M572.688 164.36C572.688 166.184 572.208 167.8 571.248 169.208C570.288 170.584 568.992 171.656 567.36 172.424C567.84 173.192 568.368 174.072 568.944 175.064C569.552 176.024 570.16 177.064 570.768 178.184C571.376 179.272 571.968 180.408 572.544 181.592C573.152 182.744 573.712 183.88 574.224 185H570C569.04 182.696 567.984 180.488 566.832 178.376C565.712 176.264 564.624 174.552 563.568 173.24C563.376 173.272 563.088 173.288 562.704 173.288C562.352 173.288 562.112 173.288 561.984 173.288H558.624V185H554.64V155.72C555.12 155.592 555.664 155.48 556.272 155.384C556.912 155.288 557.552 155.224 558.192 155.192C558.864 155.128 559.52 155.08 560.16 155.048C560.8 155.016 561.376 155 561.888 155C565.472 155 568.16 155.784 569.952 157.352C571.776 158.92 572.688 161.256 572.688 164.36ZM562.224 158.408C561.488 158.408 560.768 158.424 560.064 158.456C559.392 158.456 558.912 158.488 558.624 158.552V170.024H561.168C562.32 170.024 563.344 169.944 564.24 169.784C565.168 169.624 565.952 169.336 566.592 168.92C567.264 168.472 567.776 167.88 568.128 167.144C568.48 166.376 568.656 165.384 568.656 164.168C568.656 163.016 568.48 162.072 568.128 161.336C567.776 160.6 567.312 160.024 566.736 159.608C566.16 159.16 565.472 158.856 564.672 158.696C563.904 158.504 563.088 158.408 562.224 158.408ZM588.432 162.2C591.44 162.2 593.76 163.144 595.392 165.032C597.024 166.888 597.84 169.72 597.84 173.528V174.92H581.904C582.064 177.224 582.816 178.984 584.16 180.2C585.536 181.384 587.456 181.976 589.92 181.976C591.328 181.976 592.528 181.864 593.52 181.64C594.512 181.416 595.264 181.176 595.776 180.92L596.304 184.28C595.824 184.536 594.96 184.808 593.712 185.096C592.464 185.384 591.056 185.528 589.488 185.528C587.568 185.528 585.872 185.24 584.4 184.664C582.96 184.056 581.76 183.24 580.8 182.216C579.84 181.192 579.12 179.976 578.64 178.568C578.16 177.128 577.92 175.576 577.92 173.912C577.92 171.928 578.224 170.2 578.832 168.728C579.44 167.256 580.24 166.04 581.232 165.08C582.224 164.12 583.344 163.4 584.592 162.92C585.84 162.44 587.12 162.2 588.432 162.2ZM593.808 171.704C593.808 169.816 593.312 168.328 592.32 167.24C591.328 166.12 590.016 165.56 588.384 165.56C587.456 165.56 586.608 165.736 585.84 166.088C585.104 166.44 584.464 166.904 583.92 167.48C583.376 168.056 582.944 168.712 582.624 169.448C582.304 170.184 582.096 170.936 582 171.704H593.808ZM612.24 182.168C613.232 182.168 614.112 182.136 614.88 182.072C615.68 182.008 616.336 181.928 616.848 181.832V175.208C616.336 175.048 615.712 174.92 614.976 174.824C614.272 174.728 613.52 174.68 612.72 174.68C611.984 174.68 611.264 174.744 610.56 174.872C609.856 174.968 609.232 175.16 608.688 175.448C608.144 175.736 607.696 176.12 607.344 176.6C606.992 177.048 606.816 177.624 606.816 178.328C606.816 179.768 607.296 180.776 608.256 181.352C609.248 181.896 610.576 182.168 612.24 182.168ZM611.856 162.2C613.52 162.2 614.912 162.408 616.032 162.824C617.184 163.24 618.112 163.816 618.816 164.552C619.52 165.288 620.016 166.184 620.304 167.24C620.592 168.296 620.736 169.448 620.736 170.696V184.616C619.808 184.776 618.576 184.968 617.04 185.192C615.536 185.416 613.984 185.528 612.384 185.528C611.168 185.528 609.984 185.416 608.832 185.192C607.68 185 606.656 184.648 605.76 184.136C604.864 183.592 604.144 182.856 603.6 181.928C603.056 181 602.784 179.816 602.784 178.376C602.784 177.096 603.056 176.024 603.6 175.16C604.176 174.264 604.896 173.544 605.76 173C606.656 172.456 607.664 172.072 608.784 171.848C609.936 171.592 611.088 171.464 612.24 171.464C613.808 171.464 615.344 171.64 616.848 171.992V170.888C616.848 170.216 616.768 169.576 616.608 168.968C616.48 168.328 616.208 167.752 615.792 167.24C615.408 166.728 614.864 166.328 614.16 166.04C613.488 165.72 612.608 165.56 611.52 165.56C610.144 165.56 608.944 165.656 607.92 165.848C606.896 166.04 606.112 166.232 605.568 166.424L605.088 163.16C605.632 162.904 606.528 162.68 607.776 162.488C609.056 162.296 610.416 162.2 611.856 162.2ZM626.352 173.912C626.352 171.896 626.672 170.152 627.312 168.68C627.952 167.208 628.832 165.992 629.952 165.032C631.072 164.072 632.368 163.368 633.84 162.92C635.344 162.44 636.944 162.2 638.64 162.2C639.728 162.2 640.8 162.28 641.856 162.44C642.944 162.568 644.096 162.824 645.312 163.208L644.4 166.616C643.344 166.232 642.368 165.992 641.472 165.896C640.608 165.768 639.728 165.704 638.832 165.704C637.68 165.704 636.592 165.864 635.568 166.184C634.544 166.472 633.648 166.952 632.88 167.624C632.144 168.264 631.552 169.112 631.104 170.168C630.656 171.192 630.432 172.44 630.432 173.912C630.432 175.32 630.64 176.536 631.056 177.56C631.472 178.552 632.048 179.384 632.784 180.056C633.552 180.696 634.464 181.176 635.52 181.496C636.576 181.816 637.744 181.976 639.024 181.976C640.048 181.976 641.024 181.928 641.952 181.832C642.912 181.704 643.952 181.448 645.072 181.064L645.648 184.376C644.528 184.792 643.392 185.08 642.24 185.24C641.088 185.432 639.84 185.528 638.496 185.528C636.704 185.528 635.056 185.288 633.552 184.808C632.08 184.296 630.8 183.56 629.712 182.6C628.656 181.64 627.824 180.44 627.216 179C626.64 177.528 626.352 175.832 626.352 173.912ZM659.664 162.728H669.072V166.04H659.664V176.408C659.664 177.528 659.744 178.44 659.904 179.144C660.064 179.848 660.32 180.424 660.672 180.872C661.056 181.288 661.536 181.576 662.112 181.736C662.688 181.896 663.392 181.976 664.224 181.976C665.376 181.976 666.304 181.88 667.008 181.688C667.712 181.496 668.384 181.24 669.024 180.92L669.6 184.28C669.152 184.472 668.432 184.728 667.44 185.048C666.48 185.368 665.28 185.528 663.84 185.528C662.176 185.528 660.816 185.336 659.76 184.952C658.704 184.568 657.872 183.992 657.264 183.224C656.688 182.456 656.288 181.512 656.064 180.392C655.84 179.24 655.728 177.912 655.728 176.408V166.04H651.024V162.728H655.728V156.488L659.664 155.816V162.728ZM713.328 185C712.24 182.344 711.216 179.944 710.256 177.8C709.296 175.624 708.368 173.592 707.472 171.704C706.608 169.816 705.744 168.04 704.88 166.376C704.016 164.68 703.136 162.984 702.24 161.288V185H698.64V155.288H702.672C703.984 157.688 705.12 159.784 706.08 161.576C707.072 163.368 707.968 165.112 708.768 166.808C709.6 168.472 710.4 170.2 711.168 171.992C711.936 173.752 712.8 175.8 713.76 178.136V155.288H717.36V185H713.328ZM732.24 182.168C733.232 182.168 734.112 182.136 734.88 182.072C735.68 182.008 736.336 181.928 736.848 181.832V175.208C736.336 175.048 735.712 174.92 734.976 174.824C734.272 174.728 733.52 174.68 732.72 174.68C731.984 174.68 731.264 174.744 730.56 174.872C729.856 174.968 729.232 175.16 728.688 175.448C728.144 175.736 727.696 176.12 727.344 176.6C726.992 177.048 726.816 177.624 726.816 178.328C726.816 179.768 727.296 180.776 728.256 181.352C729.248 181.896 730.576 182.168 732.24 182.168ZM731.856 162.2C733.52 162.2 734.912 162.408 736.032 162.824C737.184 163.24 738.112 163.816 738.816 164.552C739.52 165.288 740.016 166.184 740.304 167.24C740.592 168.296 740.736 169.448 740.736 170.696V184.616C739.808 184.776 738.576 184.968 737.04 185.192C735.536 185.416 733.984 185.528 732.384 185.528C731.168 185.528 729.984 185.416 728.832 185.192C727.68 185 726.656 184.648 725.76 184.136C724.864 183.592 724.144 182.856 723.6 181.928C723.056 181 722.784 179.816 722.784 178.376C722.784 177.096 723.056 176.024 723.6 175.16C724.176 174.264 724.896 173.544 725.76 173C726.656 172.456 727.664 172.072 728.784 171.848C729.936 171.592 731.088 171.464 732.24 171.464C733.808 171.464 735.344 171.64 736.848 171.992V170.888C736.848 170.216 736.768 169.576 736.608 168.968C736.48 168.328 736.208 167.752 735.792 167.24C735.408 166.728 734.864 166.328 734.16 166.04C733.488 165.72 732.608 165.56 731.52 165.56C730.144 165.56 728.944 165.656 727.92 165.848C726.896 166.04 726.112 166.232 725.568 166.424L725.088 163.16C725.632 162.904 726.528 162.68 727.776 162.488C729.056 162.296 730.416 162.2 731.856 162.2ZM755.664 162.728H765.072V166.04H755.664V176.408C755.664 177.528 755.744 178.44 755.904 179.144C756.064 179.848 756.32 180.424 756.672 180.872C757.056 181.288 757.536 181.576 758.112 181.736C758.688 181.896 759.392 181.976 760.224 181.976C761.376 181.976 762.304 181.88 763.008 181.688C763.712 181.496 764.384 181.24 765.024 180.92L765.6 184.28C765.152 184.472 764.432 184.728 763.44 185.048C762.48 185.368 761.28 185.528 759.84 185.528C758.176 185.528 756.816 185.336 755.76 184.952C754.704 184.568 753.872 183.992 753.264 183.224C752.688 182.456 752.288 181.512 752.064 180.392C751.84 179.24 751.728 177.912 751.728 176.408V166.04H747.024V162.728H751.728V156.488L755.664 155.816V162.728ZM778.032 159.272C777.2 159.272 776.48 158.984 775.872 158.408C775.264 157.832 774.96 157.048 774.96 156.056C774.96 155.064 775.264 154.28 775.872 153.704C776.48 153.128 777.2 152.84 778.032 152.84C778.896 152.84 779.616 153.128 780.192 153.704C780.8 154.28 781.104 155.064 781.104 156.056C781.104 157.048 780.8 157.832 780.192 158.408C779.616 158.984 778.896 159.272 778.032 159.272ZM777.024 166.04H770.592V162.728H780.96V176.408C780.96 178.616 781.264 180.104 781.872 180.872C782.48 181.608 783.392 181.976 784.608 181.976C785.536 181.976 786.384 181.864 787.152 181.64C787.952 181.416 788.576 181.176 789.024 180.92L789.6 184.28C789.408 184.376 789.136 184.504 788.784 184.664C788.432 184.792 788.016 184.92 787.536 185.048C787.088 185.176 786.576 185.288 786 185.384C785.456 185.48 784.88 185.528 784.272 185.528C782.864 185.528 781.696 185.336 780.768 184.952C779.84 184.568 779.088 183.992 778.512 183.224C777.968 182.456 777.584 181.512 777.36 180.392C777.136 179.24 777.024 177.912 777.024 176.408V166.04ZM814.56 162.728C813.984 164.808 813.328 166.856 812.592 168.872C811.856 170.856 811.104 172.808 810.336 174.728C809.568 176.616 808.784 178.424 807.984 180.152C807.184 181.88 806.416 183.496 805.68 185H802.08C800.576 181.992 799.056 178.568 797.52 174.728C795.984 170.888 794.624 166.888 793.44 162.728H797.76C798.144 164.136 798.576 165.624 799.056 167.192C799.568 168.76 800.096 170.328 800.64 171.896C801.184 173.464 801.728 174.984 802.272 176.456C802.848 177.896 803.408 179.192 803.952 180.344C804.496 179.192 805.056 177.896 805.632 176.456C806.24 174.984 806.832 173.464 807.408 171.896C807.984 170.328 808.528 168.76 809.04 167.192C809.584 165.624 810.048 164.136 810.432 162.728H814.56ZM828.432 162.2C831.44 162.2 833.76 163.144 835.392 165.032C837.024 166.888 837.84 169.72 837.84 173.528V174.92H821.904C822.064 177.224 822.816 178.984 824.16 180.2C825.536 181.384 827.456 181.976 829.92 181.976C831.328 181.976 832.528 181.864 833.52 181.64C834.512 181.416 835.264 181.176 835.776 180.92L836.304 184.28C835.824 184.536 834.96 184.808 833.712 185.096C832.464 185.384 831.056 185.528 829.488 185.528C827.568 185.528 825.872 185.24 824.4 184.664C822.96 184.056 821.76 183.24 820.8 182.216C819.84 181.192 819.12 179.976 818.64 178.568C818.16 177.128 817.92 175.576 817.92 173.912C817.92 171.928 818.224 170.2 818.832 168.728C819.44 167.256 820.24 166.04 821.232 165.08C822.224 164.12 823.344 163.4 824.592 162.92C825.84 162.44 827.12 162.2 828.432 162.2ZM833.808 171.704C833.808 169.816 833.312 168.328 832.32 167.24C831.328 166.12 830.016 165.56 828.384 165.56C827.456 165.56 826.608 165.736 825.84 166.088C825.104 166.44 824.464 166.904 823.92 167.48C823.376 168.056 822.944 168.712 822.624 169.448C822.304 170.184 822.096 170.936 822 171.704H833.808Z" fill="#747572"/>
<path d="M572.688 91.36C572.688 93.184 572.208 94.8 571.248 96.208C570.288 97.584 568.992 98.656 567.36 99.424C567.84 100.192 568.368 101.072 568.944 102.064C569.552 103.024 570.16 104.064 570.768 105.184C571.376 106.272 571.968 107.408 572.544 108.592C573.152 109.744 573.712 110.88 574.224 112H570C569.04 109.696 567.984 107.488 566.832 105.376C565.712 103.264 564.624 101.552 563.568 100.24C563.376 100.272 563.088 100.288 562.704 100.288C562.352 100.288 562.112 100.288 561.984 100.288H558.624V112H554.64V82.72C555.12 82.592 555.664 82.48 556.272 82.384C556.912 82.288 557.552 82.224 558.192 82.192C558.864 82.128 559.52 82.08 560.16 82.048C560.8 82.016 561.376 82 561.888 82C565.472 82 568.16 82.784 569.952 84.352C571.776 85.92 572.688 88.256 572.688 91.36ZM562.224 85.408C561.488 85.408 560.768 85.424 560.064 85.456C559.392 85.456 558.912 85.488 558.624 85.552V97.024H561.168C562.32 97.024 563.344 96.944 564.24 96.784C565.168 96.624 565.952 96.336 566.592 95.92C567.264 95.472 567.776 94.88 568.128 94.144C568.48 93.376 568.656 92.384 568.656 91.168C568.656 90.016 568.48 89.072 568.128 88.336C567.776 87.6 567.312 87.024 566.736 86.608C566.16 86.16 565.472 85.856 564.672 85.696C563.904 85.504 563.088 85.408 562.224 85.408ZM588.432 89.2C591.44 89.2 593.76 90.144 595.392 92.032C597.024 93.888 597.84 96.72 597.84 100.528V101.92H581.904C582.064 104.224 582.816 105.984 584.16 107.2C585.536 108.384 587.456 108.976 589.92 108.976C591.328 108.976 592.528 108.864 593.52 108.64C594.512 108.416 595.264 108.176 595.776 107.92L596.304 111.28C595.824 111.536 594.96 111.808 593.712 112.096C592.464 112.384 591.056 112.528 589.488 112.528C587.568 112.528 585.872 112.24 584.4 111.664C582.96 111.056 581.76 110.24 580.8 109.216C579.84 108.192 579.12 106.976 578.64 105.568C578.16 104.128 577.92 102.576 577.92 100.912C577.92 98.928 578.224 97.2 578.832 95.728C579.44 94.256 580.24 93.04 581.232 92.08C582.224 91.12 583.344 90.4 584.592 89.92C585.84 89.44 587.12 89.2 588.432 89.2ZM593.808 98.704C593.808 96.816 593.312 95.328 592.32 94.24C591.328 93.12 590.016 92.56 588.384 92.56C587.456 92.56 586.608 92.736 585.84 93.088C585.104 93.44 584.464 93.904 583.92 94.48C583.376 95.056 582.944 95.712 582.624 96.448C582.304 97.184 582.096 97.936 582 98.704H593.808ZM612.24 109.168C613.232 109.168 614.112 109.136 614.88 109.072C615.68 109.008 616.336 108.928 616.848 108.832V102.208C616.336 102.048 615.712 101.92 614.976 101.824C614.272 101.728 613.52 101.68 612.72 101.68C611.984 101.68 611.264 101.744 610.56 101.872C609.856 101.968 609.232 102.16 608.688 102.448C608.144 102.736 607.696 103.12 607.344 103.6C606.992 104.048 606.816 104.624 606.816 105.328C606.816 106.768 607.296 107.776 608.256 108.352C609.248 108.896 610.576 109.168 612.24 109.168ZM611.856 89.2C613.52 89.2 614.912 89.408 616.032 89.824C617.184 90.24 618.112 90.816 618.816 91.552C619.52 92.288 620.016 93.184 620.304 94.24C620.592 95.296 620.736 96.448 620.736 97.696V111.616C619.808 111.776 618.576 111.968 617.04 112.192C615.536 112.416 613.984 112.528 612.384 112.528C611.168 112.528 609.984 112.416 608.832 112.192C607.68 112 606.656 111.648 605.76 111.136C604.864 110.592 604.144 109.856 603.6 108.928C603.056 108 602.784 106.816 602.784 105.376C602.784 104.096 603.056 103.024 603.6 102.16C604.176 101.264 604.896 100.544 605.76 100C606.656 99.456 607.664 99.072 608.784 98.848C609.936 98.592 611.088 98.464 612.24 98.464C613.808 98.464 615.344 98.64 616.848 98.992V97.888C616.848 97.216 616.768 96.576 616.608 95.968C616.48 95.328 616.208 94.752 615.792 94.24C615.408 93.728 614.864 93.328 614.16 93.04C613.488 92.72 612.608 92.56 611.52 92.56C610.144 92.56 608.944 92.656 607.92 92.848C606.896 93.04 606.112 93.232 605.568 93.424L605.088 90.16C605.632 89.904 606.528 89.68 607.776 89.488C609.056 89.296 610.416 89.2 611.856 89.2ZM626.352 100.912C626.352 98.896 626.672 97.152 627.312 95.68C627.952 94.208 628.832 92.992 629.952 92.032C631.072 91.072 632.368 90.368 633.84 89.92C635.344 89.44 636.944 89.2 638.64 89.2C639.728 89.2 640.8 89.28 641.856 89.44C642.944 89.568 644.096 89.824 645.312 90.208L644.4 93.616C643.344 93.232 642.368 92.992 641.472 92.896C640.608 92.768 639.728 92.704 638.832 92.704C637.68 92.704 636.592 92.864 635.568 93.184C634.544 93.472 633.648 93.952 632.88 94.624C632.144 95.264 631.552 96.112 631.104 97.168C630.656 98.192 630.432 99.44 630.432 100.912C630.432 102.32 630.64 103.536 631.056 104.56C631.472 105.552 632.048 106.384 632.784 107.056C633.552 107.696 634.464 108.176 635.52 108.496C636.576 108.816 637.744 108.976 639.024 108.976C640.048 108.976 641.024 108.928 641.952 108.832C642.912 108.704 643.952 108.448 645.072 108.064L645.648 111.376C644.528 111.792 643.392 112.08 642.24 112.24C641.088 112.432 639.84 112.528 638.496 112.528C636.704 112.528 635.056 112.288 633.552 111.808C632.08 111.296 630.8 110.56 629.712 109.6C628.656 108.64 627.824 107.44 627.216 106C626.64 104.528 626.352 102.832 626.352 100.912ZM659.664 89.728H669.072V93.04H659.664V103.408C659.664 104.528 659.744 105.44 659.904 106.144C660.064 106.848 660.32 107.424 660.672 107.872C661.056 108.288 661.536 108.576 662.112 108.736C662.688 108.896 663.392 108.976 664.224 108.976C665.376 108.976 666.304 108.88 667.008 108.688C667.712 108.496 668.384 108.24 669.024 107.92L669.6 111.28C669.152 111.472 668.432 111.728 667.44 112.048C666.48 112.368 665.28 112.528 663.84 112.528C662.176 112.528 660.816 112.336 659.76 111.952C658.704 111.568 657.872 110.992 657.264 110.224C656.688 109.456 656.288 108.512 656.064 107.392C655.84 106.24 655.728 104.912 655.728 103.408V93.04H651.024V89.728H655.728V83.488L659.664 82.816V89.728Z" fill="#747572"/>
</svg>
